<svg width="255" height="128" viewBox="0 0 255 128" fill="none" xmlns="http://www.w3.org/2000/svg">
<g opacity="0.4">
<mask id="path-1-inside-1_839_10106" fill="white">
<path fill-rule="evenodd" clip-rule="evenodd" d="M127.78 5.59506e-06V19.2332H127.78V128H108.58V32.9928L13.8811 127.855L0.304579 114.255L95.1626 19.2332L0 19.2332V0H108.58H127.78L127.78 5.59506e-06Z"/>
</mask>
<path d="M127.78 19.2332V19.5038H128.05V19.2332H127.78ZM127.78 5.59506e-06H128.05V-0.251532L127.8 -0.269929L127.78 5.59506e-06ZM127.78 19.2332V18.9625H127.509V19.2332H127.78ZM127.78 128V128.271H128.05V128H127.78ZM108.58 128H108.309V128.271H108.58V128ZM108.58 32.9928H108.85V32.3386L108.388 32.8016L108.58 32.9928ZM13.8811 127.855L13.6895 128.046L13.8811 128.238L14.0726 128.046L13.8811 127.855ZM0.304579 114.255L0.113029 114.064L-0.0778617 114.255L0.113029 114.446L0.304579 114.255ZM95.1626 19.2332L95.3541 19.4244L95.8152 18.9625H95.1626V19.2332ZM0 19.2332H-0.27066V19.5038H-1.62745e-08L0 19.2332ZM0 0V-0.27066H-0.27066V0H0ZM127.78 0L127.799 -0.269935L127.79 -0.27066H127.78V0ZM128.05 19.2332V5.59506e-06H127.509V19.2332H128.05ZM127.78 19.5038H127.78V18.9625H127.78V19.5038ZM128.05 128V19.2332H127.509V128H128.05ZM108.58 128.271H127.78V127.729H108.58V128.271ZM108.309 32.9928V128H108.85V32.9928H108.309ZM108.388 32.8016L13.6895 127.664L14.0726 128.046L108.771 33.184L108.388 32.8016ZM14.0726 127.664L0.496129 114.064L0.113029 114.446L13.6895 128.046L14.0726 127.664ZM0.496129 114.446L95.3541 19.4244L94.971 19.0419L0.113029 114.064L0.496129 114.446ZM-1.62745e-08 19.5038L95.1626 19.5038V18.9625L1.62745e-08 18.9625L-1.62745e-08 19.5038ZM-0.27066 0V19.2332H0.27066V0H-0.27066ZM108.58 -0.27066H0V0.27066H108.58V-0.27066ZM127.78 -0.27066H108.58V0.27066H127.78V-0.27066ZM127.8 -0.269929L127.799 -0.269935L127.76 0.269935L127.76 0.26994L127.8 -0.269929Z" fill="#00323F" mask="url(#path-1-inside-1_839_10106)"/>
</g>
<g opacity="0.4">
<mask id="path-3-inside-2_839_10106" fill="white">
<path fill-rule="evenodd" clip-rule="evenodd" d="M127.78 14.0584L141.357 0.458496L191.267 50.4547L241.177 0.458496L254.754 14.0584L204.843 64.0546L254.753 114.05L241.176 127.65L191.267 77.6545L141.357 127.65L127.781 114.05L177.69 64.0546L127.78 14.0584Z"/>
</mask>
<path d="M141.357 0.458496L141.548 0.267276L141.357 0.0753957L141.165 0.267276L141.357 0.458496ZM127.78 14.0584L127.589 13.8672L127.398 14.0584L127.589 14.2496L127.78 14.0584ZM191.267 50.4547L191.075 50.6459L191.267 50.8378L191.458 50.6459L191.267 50.4547ZM241.177 0.458496L241.369 0.267276L241.177 0.0753957L240.986 0.267276L241.177 0.458496ZM254.754 14.0584L254.945 14.2496L255.136 14.0584L254.945 13.8672L254.754 14.0584ZM204.843 64.0546L204.652 63.8634L204.461 64.0546L204.652 64.2458L204.843 64.0546ZM254.753 114.05L254.945 114.241L255.135 114.05L254.945 113.859L254.753 114.05ZM241.176 127.65L240.985 127.841L241.176 128.033L241.368 127.841L241.176 127.65ZM191.267 77.6545L191.458 77.4633L191.267 77.2714L191.075 77.4633L191.267 77.6545ZM141.357 127.65L141.166 127.841L141.357 128.033L141.549 127.841L141.357 127.65ZM127.781 114.05L127.589 113.859L127.398 114.05L127.589 114.241L127.781 114.05ZM177.69 64.0546L177.882 64.2458L178.073 64.0546L177.882 63.8634L177.69 64.0546ZM141.165 0.267276L127.589 13.8672L127.972 14.2496L141.548 0.649716L141.165 0.267276ZM191.458 50.2635L141.548 0.267276L141.165 0.649716L191.075 50.6459L191.458 50.2635ZM191.458 50.6459L241.369 0.649716L240.986 0.267276L191.075 50.2635L191.458 50.6459ZM240.986 0.649716L254.562 14.2496L254.945 13.8672L241.369 0.267276L240.986 0.649716ZM254.562 13.8672L204.652 63.8634L205.035 64.2458L254.945 14.2496L254.562 13.8672ZM254.945 113.859L205.035 63.8634L204.652 64.2458L254.561 114.241L254.945 113.859ZM241.368 127.841L254.945 114.241L254.561 113.859L240.985 127.459L241.368 127.841ZM191.075 77.8457L240.985 127.841L241.368 127.459L191.458 77.4633L191.075 77.8457ZM191.075 77.4633L141.166 127.459L141.549 127.841L191.458 77.8457L191.075 77.4633ZM141.549 127.459L127.972 113.859L127.589 114.241L141.166 127.841L141.549 127.459ZM127.972 114.241L177.882 64.2458L177.499 63.8634L127.589 113.859L127.972 114.241ZM127.589 14.2496L177.499 64.2458L177.882 63.8634L127.972 13.8672L127.589 14.2496Z" fill="#00323F" mask="url(#path-3-inside-2_839_10106)"/>
</g>
</svg>
