<svg width="128" height="256" viewBox="0 0 128 256" fill="none" xmlns="http://www.w3.org/2000/svg">
<circle opacity="0.4" cx="64.0559" cy="63.8899" r="63.7545" stroke="#00323F" stroke-width="0.27066"/>
<g opacity="0.4">
<mask id="path-2-inside-1_839_10149" fill="white">
<path fill-rule="evenodd" clip-rule="evenodd" d="M127.78 127.78V146.98H127.779V255.56H108.579V160.716L13.8809 255.415L0.304417 241.838L95.1627 146.98L0 146.98V127.78L108.579 127.78H127.779H127.78Z"/>
</mask>
<path d="M127.78 146.98V147.251H128.05V146.98H127.78ZM127.78 127.78H128.05V127.509H127.78V127.78ZM127.779 146.98V146.709H127.508V146.98H127.779ZM127.779 255.56V255.83H128.05V255.56H127.779ZM108.579 255.56H108.308V255.83H108.579V255.56ZM108.579 160.716H108.85V160.063L108.388 160.525L108.579 160.716ZM13.8809 255.415L13.6895 255.606L13.8809 255.797L14.0723 255.606L13.8809 255.415ZM0.304417 241.838L0.113031 241.647L-0.0783537 241.838L0.113031 242.029L0.304417 241.838ZM95.1627 146.98L95.3541 147.171L95.8161 146.709H95.1627V146.98ZM0 146.98H-0.27066V147.251H-1.62745e-08L0 146.98ZM0 127.78L1.3923e-08 127.509H-0.27066V127.78H0ZM108.579 127.78V128.05V127.78ZM128.05 146.98V127.78H127.509V146.98H128.05ZM127.779 147.251H127.78V146.709H127.779V147.251ZM128.05 255.56V146.98H127.508V255.56H128.05ZM108.579 255.83H127.779V255.289H108.579V255.83ZM108.308 160.716V255.56H108.85V160.716H108.308ZM108.388 160.525L13.6895 255.223L14.0723 255.606L108.77 160.908L108.388 160.525ZM14.0723 255.223L0.495802 241.647L0.113031 242.029L13.6895 255.606L14.0723 255.223ZM0.495802 242.029L95.3541 147.171L94.9713 146.788L0.113031 241.647L0.495802 242.029ZM-1.62745e-08 147.251L95.1627 147.251V146.709L1.62745e-08 146.709L-1.62745e-08 147.251ZM-0.27066 127.78V146.98H0.27066V127.78H-0.27066ZM108.579 127.509L1.3923e-08 127.509L-1.3923e-08 128.05L108.579 128.05V127.509ZM127.779 127.509H108.579V128.05H127.779V127.509ZM127.78 127.509H127.779V128.05H127.78V127.509Z" fill="#00323F" mask="url(#path-2-inside-1_839_10149)"/>
</g>
</svg>
