<svg width="160" height="81" viewBox="0 0 160 81" fill="none" xmlns="http://www.w3.org/2000/svg">
<g opacity="0.4">
<mask id="path-1-inside-1_963_10357" fill="white">
<path fill-rule="evenodd" clip-rule="evenodd" d="M160 3.50749e-06V12.0571H159.999V80.2419H147.942V20.6838L88.4753 80.151L79.9496 71.6254L139.518 12.0571L79.7581 12.0571L79.7581 0L147.942 3.50749e-06H159.999H160Z"/>
</mask>
<path d="M160 12.0571V12.227H160.17V12.0571H160ZM160 3.50749e-06H160.17V-0.169963H160V3.50749e-06ZM159.999 12.0571V11.8871H159.83V12.0571H159.999ZM159.999 80.2419V80.4119H160.169V80.2419H159.999ZM147.942 80.2419H147.772V80.4119H147.942V80.2419ZM147.942 20.6838H148.112V20.2735L147.822 20.5637L147.942 20.6838ZM88.4753 80.151L88.3551 80.2712L88.4753 80.3914L88.5955 80.2712L88.4753 80.151ZM79.9496 71.6254L79.8294 71.5052L79.7093 71.6254L79.8294 71.7455L79.9496 71.6254ZM139.518 12.0571L139.638 12.1773L139.928 11.8871H139.518V12.0571ZM79.7581 12.0571H79.5881V12.227H79.7581L79.7581 12.0571ZM79.7581 0L79.7581 -0.169966L79.5881 -0.169966L79.5881 -7.42946e-09L79.7581 0ZM147.942 3.50749e-06V0.16997V3.50749e-06ZM160.17 12.0571V3.50749e-06H159.83V12.0571H160.17ZM159.999 12.227H160V11.8871H159.999V12.227ZM160.169 80.2419V12.0571H159.83V80.2419H160.169ZM147.942 80.4119H159.999V80.072H147.942V80.4119ZM147.772 20.6838V80.2419H148.112V20.6838H147.772ZM147.822 20.5637L88.3551 80.0308L88.5955 80.2712L148.063 20.804L147.822 20.5637ZM88.5955 80.0308L80.0698 71.5052L79.8294 71.7455L88.3551 80.2712L88.5955 80.0308ZM80.0698 71.7455L139.638 12.1773L139.398 11.9369L79.8294 71.5052L80.0698 71.7455ZM79.7581 12.227L139.518 12.227V11.8871L79.7581 11.8871L79.7581 12.227ZM79.5881 -7.42946e-09L79.5881 12.0571H79.928L79.928 7.42946e-09L79.5881 -7.42946e-09ZM147.942 -0.169963L79.7581 -0.169966L79.7581 0.169966L147.942 0.16997V-0.169963ZM159.999 -0.169963H147.942V0.16997H159.999V-0.169963ZM160 -0.169963H159.999V0.16997H160V-0.169963Z" fill="#00323F" mask="url(#path-1-inside-1_963_10357)"/>
</g>
<g opacity="0.4">
<mask id="path-3-inside-2_963_10357" fill="white">
<path fill-rule="evenodd" clip-rule="evenodd" d="M0 8.81299L8.52564 0.287354L39.868 31.6297L71.2104 0.287354L79.736 8.81299L48.3937 40.1554L79.7352 71.4969L71.2095 80.0225L39.868 48.681L8.5265 80.0225L0.000862996 71.4969L31.3424 40.1554L0 8.81299Z"/>
</mask>
<path d="M8.52564 0.287354L8.64583 0.167169L8.52564 0.0469849L8.40546 0.167169L8.52564 0.287354ZM0 8.81299L-0.120184 8.69281L-0.240369 8.81299L-0.120184 8.93318L0 8.81299ZM39.868 31.6297L39.7478 31.7499L39.868 31.8701L39.9882 31.7499L39.868 31.6297ZM71.2104 0.287354L71.3306 0.167169L71.2104 0.0469849L71.0902 0.167169L71.2104 0.287354ZM79.736 8.81299L79.8562 8.93318L79.9764 8.81299L79.8562 8.69281L79.736 8.81299ZM48.3937 40.1554L48.2735 40.0352L48.1533 40.1554L48.2735 40.2756L48.3937 40.1554ZM79.7352 71.4969L79.8553 71.6171L79.9755 71.4969L79.8553 71.3767L79.7352 71.4969ZM71.2095 80.0225L71.0893 80.1427L71.2095 80.2629L71.3297 80.1427L71.2095 80.0225ZM39.868 48.681L39.9882 48.5608L39.868 48.4406L39.7478 48.5608L39.868 48.681ZM8.5265 80.0225L8.40632 80.1427L8.5265 80.2629L8.64669 80.1427L8.5265 80.0225ZM0.000862996 71.4969L-0.119321 71.3767L-0.239506 71.4969L-0.119321 71.6171L0.000862996 71.4969ZM31.3424 40.1554L31.4626 40.2756L31.5827 40.1554L31.4626 40.0352L31.3424 40.1554ZM8.40546 0.167169L-0.120184 8.69281L0.120184 8.93318L8.64583 0.407538L8.40546 0.167169ZM39.9882 31.5095L8.64583 0.167169L8.40546 0.407538L39.7478 31.7499L39.9882 31.5095ZM39.9882 31.7499L71.3306 0.407538L71.0902 0.167169L39.7478 31.5095L39.9882 31.7499ZM71.0902 0.407538L79.6158 8.93318L79.8562 8.69281L71.3306 0.167169L71.0902 0.407538ZM79.6158 8.69281L48.2735 40.0352L48.5138 40.2756L79.8562 8.93318L79.6158 8.69281ZM79.8553 71.3767L48.5138 40.0352L48.2735 40.2756L79.615 71.6171L79.8553 71.3767ZM71.3297 80.1427L79.8553 71.6171L79.615 71.3767L71.0893 79.9023L71.3297 80.1427ZM39.7478 48.8012L71.0893 80.1427L71.3297 79.9023L39.9882 48.5608L39.7478 48.8012ZM39.7478 48.5608L8.40632 79.9023L8.64669 80.1427L39.9882 48.8012L39.7478 48.5608ZM8.64669 79.9023L0.121047 71.3767L-0.119321 71.6171L8.40632 80.1427L8.64669 79.9023ZM0.121047 71.6171L31.4626 40.2756L31.2222 40.0352L-0.119321 71.3767L0.121047 71.6171ZM-0.120184 8.93318L31.2222 40.2756L31.4626 40.0352L0.120184 8.69281L-0.120184 8.93318Z" fill="#00323F" mask="url(#path-3-inside-2_963_10357)"/>
</g>
</svg>
