<svg width="125" height="255" viewBox="0 0 125 255" fill="none" xmlns="http://www.w3.org/2000/svg">
<g opacity="0.4">
<mask id="path-1-inside-1_839_10115" fill="white">
<path fill-rule="evenodd" clip-rule="evenodd" d="M0 13.5765L13.5765 0L63.4866 49.9102L113.397 0L126.973 13.5765L77.0631 63.4866L126.973 113.396L113.396 126.973L63.4866 77.0631L13.5771 126.973L0.000598896 113.396L49.9102 63.4866L0 13.5765Z"/>
</mask>
<path d="M13.5765 0L13.7679 -0.191385L13.5765 -0.38277L13.3851 -0.191385L13.5765 0ZM0 13.5765L-0.191385 13.3851L-0.38277 13.5765L-0.191385 13.7679L0 13.5765ZM63.4866 49.9102L63.2953 50.1015L63.4866 50.2929L63.678 50.1015L63.4866 49.9102ZM113.397 0L113.588 -0.191385L113.397 -0.38277L113.205 -0.191385L113.397 0ZM126.973 13.5765L127.165 13.7679L127.356 13.5765L127.165 13.3851L126.973 13.5765ZM77.0631 63.4866L76.8718 63.2953L76.6804 63.4866L76.8718 63.678L77.0631 63.4866ZM126.973 113.396L127.164 113.588L127.355 113.396L127.164 113.205L126.973 113.396ZM113.396 126.973L113.205 127.164L113.396 127.355L113.588 127.164L113.396 126.973ZM63.4866 77.0631L63.678 76.8718L63.4866 76.6804L63.2953 76.8718L63.4866 77.0631ZM13.5771 126.973L13.3857 127.164L13.5771 127.355L13.7685 127.164L13.5771 126.973ZM0.000598896 113.396L-0.190786 113.205L-0.382171 113.396L-0.190786 113.588L0.000598896 113.396ZM49.9102 63.4866L50.1015 63.678L50.2929 63.4866L50.1015 63.2953L49.9102 63.4866ZM13.3851 -0.191385L-0.191385 13.3851L0.191385 13.7679L13.7679 0.191385L13.3851 -0.191385ZM63.678 49.7188L13.7679 -0.191385L13.3851 0.191385L63.2953 50.1015L63.678 49.7188ZM63.678 50.1015L113.588 0.191385L113.205 -0.191385L63.2953 49.7188L63.678 50.1015ZM113.205 0.191385L126.782 13.7679L127.165 13.3851L113.588 -0.191385L113.205 0.191385ZM126.782 13.3851L76.8718 63.2953L77.2545 63.678L127.165 13.7679L126.782 13.3851ZM127.164 113.205L77.2545 63.2953L76.8718 63.678L126.781 113.588L127.164 113.205ZM113.588 127.164L127.164 113.588L126.781 113.205L113.205 126.781L113.588 127.164ZM63.2953 77.2545L113.205 127.164L113.588 126.781L63.678 76.8718L63.2953 77.2545ZM63.2953 76.8718L13.3857 126.781L13.7685 127.164L63.678 77.2545L63.2953 76.8718ZM13.7685 126.781L0.191984 113.205L-0.190786 113.588L13.3857 127.164L13.7685 126.781ZM0.191984 113.588L50.1015 63.678L49.7188 63.2953L-0.190786 113.205L0.191984 113.588ZM-0.191385 13.7679L49.7188 63.678L50.1015 63.2953L0.191385 13.3851L-0.191385 13.7679Z" fill="#00323F" mask="url(#path-1-inside-1_839_10115)"/>
</g>
<g opacity="0.4">
<mask id="path-3-inside-2_839_10115" fill="white">
<path fill-rule="evenodd" clip-rule="evenodd" d="M127.78 126.973V146.173H127.78V254.752H108.58V159.91L13.8819 254.607L0.305394 241.031L95.1637 146.173L0 146.173L8.39267e-07 126.973L108.58 126.973H127.78H127.78Z"/>
</mask>
<path d="M127.78 146.173V146.443H128.05V146.173H127.78ZM127.78 126.973H128.05V126.702H127.78V126.973ZM127.78 146.173V145.902H127.509V146.173H127.78ZM127.78 254.752V255.023H128.05V254.752H127.78ZM108.58 254.752H108.309V255.023H108.58V254.752ZM108.58 159.91H108.85V159.256L108.388 159.718L108.58 159.91ZM13.8819 254.607L13.6905 254.799L13.8819 254.99L14.0733 254.799L13.8819 254.607ZM0.305394 241.031L0.114009 240.84L-0.0773763 241.031L0.114009 241.222L0.305394 241.031ZM95.1637 146.173L95.355 146.364L95.8171 145.902H95.1637V146.173ZM0 146.173H-0.27066V146.443H-1.62743e-08L0 146.173ZM8.39267e-07 126.973L8.53531e-07 126.702H-0.270659L-0.270659 126.973L8.39267e-07 126.973ZM108.58 126.973V127.243V126.973ZM128.05 146.173V126.973H127.509V146.173H128.05ZM127.78 146.443H127.78V145.902H127.78V146.443ZM128.05 254.752V146.173H127.509V254.752H128.05ZM108.58 255.023H127.78V254.482H108.58V255.023ZM108.309 159.91V254.752H108.85V159.91H108.309ZM108.388 159.718L13.6905 254.416L14.0733 254.799L108.771 160.101L108.388 159.718ZM14.0733 254.416L0.496779 240.84L0.114009 241.222L13.6905 254.799L14.0733 254.416ZM0.496779 241.222L95.355 146.364L94.9723 145.981L0.114009 240.84L0.496779 241.222ZM-1.62743e-08 146.443L95.1637 146.443V145.902L1.62743e-08 145.902L-1.62743e-08 146.443ZM-0.270659 126.973L-0.27066 146.173H0.27066L0.27066 126.973L-0.270659 126.973ZM108.58 126.702L8.53531e-07 126.702L8.25004e-07 127.243L108.58 127.243V126.702ZM127.78 126.702H108.58V127.243H127.78V126.702ZM127.78 126.702H127.78V127.243H127.78V126.702Z" fill="#00323F" mask="url(#path-3-inside-2_839_10115)"/>
</g>
</svg>
