<svg width="255" height="256" viewBox="0 0 255 256" fill="none" xmlns="http://www.w3.org/2000/svg">
<circle opacity="0.4" cx="191.065" cy="63.8899" r="63.7545" stroke="#00323F" stroke-width="0.27066"/>
<g opacity="0.4">
<mask id="path-2-inside-1_839_10089" fill="white">
<path fill-rule="evenodd" clip-rule="evenodd" d="M254.789 128V147.2H254.788V255.78H235.588V160.937L140.89 255.635L127.314 242.058L222.172 147.2L127.009 147.2V128L235.588 128H254.788H254.789Z"/>
</mask>
<path d="M254.789 147.2V147.471H255.06V147.2H254.789ZM254.789 128H255.06V127.729H254.789V128ZM254.788 147.2V146.929H254.518V147.2H254.788ZM254.788 255.78V256.05H255.059V255.78H254.788ZM235.588 255.78H235.318V256.05H235.588V255.78ZM235.588 160.937H235.859V160.283L235.397 160.745L235.588 160.937ZM140.89 255.635L140.699 255.826L140.89 256.018L141.082 255.826L140.89 255.635ZM127.314 242.058L127.123 241.867L126.931 242.058L127.123 242.25L127.314 242.058ZM222.172 147.2L222.363 147.391L222.826 146.929H222.172V147.2ZM127.009 147.2H126.739V147.471H127.009L127.009 147.2ZM127.009 128L127.009 127.729H126.739V128H127.009ZM235.588 128V128.271V128ZM255.06 147.2V128H254.518V147.2H255.06ZM254.788 147.471H254.789V146.929H254.788V147.471ZM255.059 255.78V147.2H254.518V255.78H255.059ZM235.588 256.05H254.788V255.509H235.588V256.05ZM235.318 160.937V255.78H235.859V160.937H235.318ZM235.397 160.745L140.699 255.443L141.082 255.826L235.78 161.128L235.397 160.745ZM141.082 255.443L127.505 241.867L127.123 242.25L140.699 255.826L141.082 255.443ZM127.505 242.25L222.363 147.391L221.981 147.009L127.123 241.867L127.505 242.25ZM127.009 147.471L222.172 147.471V146.929L127.009 146.929L127.009 147.471ZM126.739 128V147.2H127.28V128H126.739ZM235.588 127.729L127.009 127.729L127.009 128.271L235.588 128.271V127.729ZM254.788 127.729H235.588V128.271H254.788V127.729ZM254.789 127.729H254.788V128.271H254.789V127.729Z" fill="#00323F" mask="url(#path-2-inside-1_839_10089)"/>
</g>
<g opacity="0.4">
<mask id="path-4-inside-2_839_10089" fill="white">
<path fill-rule="evenodd" clip-rule="evenodd" d="M0 14.034L13.5765 0.45752L63.4868 50.3678L113.397 0.45752L126.974 14.034L77.0633 63.9443L126.973 113.854L113.396 127.43L63.4868 77.5208L13.5774 127.43L0.000926954 113.854L49.9103 63.9443L0 14.034Z"/>
</mask>
<path d="M13.5765 0.45752L13.7679 0.266134L13.5765 0.0747492L13.3851 0.266134L13.5765 0.45752ZM0 14.034L-0.191385 13.8426L-0.38277 14.034L-0.191385 14.2254L0 14.034ZM63.4868 50.3678L63.2954 50.5592L63.4868 50.7506L63.6782 50.5592L63.4868 50.3678ZM113.397 0.45752L113.589 0.266134L113.397 0.0747492L113.206 0.266134L113.397 0.45752ZM126.974 14.034L127.165 14.2254L127.356 14.034L127.165 13.8426L126.974 14.034ZM77.0633 63.9443L76.8719 63.7529L76.6805 63.9443L76.8719 64.1357L77.0633 63.9443ZM126.973 113.854L127.164 114.045L127.355 113.854L127.164 113.662L126.973 113.854ZM113.396 127.43L113.205 127.622L113.396 127.813L113.588 127.622L113.396 127.43ZM63.4868 77.5208L63.6782 77.3294L63.4868 77.1381L63.2954 77.3294L63.4868 77.5208ZM13.5774 127.43L13.386 127.622L13.5774 127.813L13.7688 127.622L13.5774 127.43ZM0.000926954 113.854L-0.190458 113.662L-0.381843 113.854L-0.190458 114.045L0.000926954 113.854ZM49.9103 63.9443L50.1017 64.1357L50.2931 63.9443L50.1017 63.7529L49.9103 63.9443ZM13.3851 0.266134L-0.191385 13.8426L0.191385 14.2254L13.7679 0.648905L13.3851 0.266134ZM63.6782 50.1765L13.7679 0.266134L13.3851 0.648905L63.2954 50.5592L63.6782 50.1765ZM63.6782 50.5592L113.589 0.648905L113.206 0.266134L63.2954 50.1765L63.6782 50.5592ZM113.206 0.648905L126.782 14.2254L127.165 13.8426L113.589 0.266134L113.206 0.648905ZM126.782 13.8426L76.8719 63.7529L77.2547 64.1357L127.165 14.2254L126.782 13.8426ZM127.164 113.662L77.2547 63.7529L76.8719 64.1357L126.781 114.045L127.164 113.662ZM113.588 127.622L127.164 114.045L126.781 113.662L113.205 127.239L113.588 127.622ZM63.2954 77.7122L113.205 127.622L113.588 127.239L63.6782 77.3294L63.2954 77.7122ZM63.2954 77.3294L13.386 127.239L13.7688 127.622L63.6782 77.7122L63.2954 77.3294ZM13.7688 127.239L0.192312 113.662L-0.190458 114.045L13.386 127.622L13.7688 127.239ZM0.192312 114.045L50.1017 64.1357L49.7189 63.7529L-0.190458 113.662L0.192312 114.045ZM-0.191385 14.2254L49.7189 64.1357L50.1017 63.7529L0.191385 13.8426L-0.191385 14.2254Z" fill="#00323F" mask="url(#path-4-inside-2_839_10089)"/>
</g>
</svg>
