<?xml version="1.0" encoding="UTF-8"?>
<svg id="logo_en-14658c2c--sprite" width="260.99686" height="110.22124" fill="none" version="1.1" viewBox="0 0 260.99686 110.22124" xmlns="http://www.w3.org/2000/svg">
 <g id="g924" transform="matrix(3 0 0 3 0 .00124619)">
  <path id="path833" d="m86.838 14.198c1.094-6.675-3.505-12.96-10.271-14.04-6.767-1.078-13.138 3.46-14.231 10.134-1.094 6.675 3.505 12.96 10.27 14.04 6.767 1.078 13.139-3.458 14.232-10.133z" fill="#ff3300"/>
  <path id="path835" d="m13.73 12.387v3.402h-10.043v6.974h7.582v3.402h-7.581v10.513h-3.688v-24.291zm19.406 6.294c0 2.11-0.853 3.708-2.63 4.695v0.952c2.22 1.123 3.245 2.926 3.245 5.308 0 3.946-2.8 7.042-8.333 7.042h-7.274v-24.291h7.547c4.952 0 7.445 2.755 7.445 6.294zm-11.338 3.674h3.45c3.039 0 4.166-1.225 4.166-3.266 0-2.075-1.127-3.3-4.167-3.3h-3.45v6.566zm0 10.921h3.45c3.483 0 4.78-1.395 4.78-3.742 0-2.382-1.297-3.777-4.78-3.777h-3.45zm20.442-20.89h-3.71v24.328h3.711v-10.754h4.145l4.092 10.78h3.942l-4.781-12.504 4.498-11.85h-3.941l-3.836 10.056h-4.12v-10.055z" clip-rule="evenodd" fill="#090908" fill-rule="evenodd"/>
 </g>
</svg>
